<svg xmlns="http://www.w3.org/2000/svg" xmlns:xlink="http://www.w3.org/1999/xlink" width="500" zoomAndPan="magnify" viewBox="0 0 375 374.999991" height="500" preserveAspectRatio="xMidYMid meet" version="1.0"><defs><clipPath id="dc196eac82"><path d="M 2.917969 2.917969 L 372.082031 2.917969 L 372.082031 372.082031 L 2.917969 372.082031 Z M 2.917969 2.917969 " clip-rule="nonzero"/></clipPath><clipPath id="30c45e344d"><path d="M 187.5 2.917969 C 85.558594 2.917969 2.917969 85.558594 2.917969 187.5 C 2.917969 289.441406 85.558594 372.082031 187.5 372.082031 C 289.441406 372.082031 372.082031 289.441406 372.082031 187.5 C 372.082031 85.558594 289.441406 2.917969 187.5 2.917969 " clip-rule="nonzero"/></clipPath><clipPath id="f95a828872"><path d="M 19.988281 19.988281 L 355.238281 19.988281 L 355.238281 355.238281 L 19.988281 355.238281 Z M 19.988281 19.988281 " clip-rule="nonzero"/></clipPath></defs><g clip-path="url(#dc196eac82)"><g clip-path="url(#30c45e344d)"><path fill="#0072ce" d="M 2.917969 2.917969 L 372.082031 2.917969 L 372.082031 372.082031 L 2.917969 372.082031 Z M 2.917969 2.917969 " fill-opacity="1" fill-rule="nonzero"/></g></g><path fill="#f4f6fc" d="M 206.238281 156.605469 L 213.699219 156.605469 L 213.699219 136.6875 C 213.699219 122.304688 201.996094 110.601562 187.613281 110.601562 C 173.230469 110.601562 161.527344 122.304688 161.527344 136.6875 L 161.527344 141.363281 L 168.988281 141.363281 L 168.988281 137.386719 C 168.988281 127.113281 177.34375 118.761719 187.613281 118.761719 C 197.882812 118.761719 206.238281 127.117188 206.238281 137.386719 Z M 206.238281 156.605469 " fill-opacity="1" fill-rule="nonzero"/><path fill="#f4f6fc" d="M 187.613281 97.230469 C 137.777344 97.230469 97.230469 137.777344 97.230469 187.613281 C 97.230469 237.453125 137.777344 277.996094 187.613281 277.996094 C 237.453125 277.996094 277.996094 237.453125 277.996094 187.613281 C 277.996094 137.777344 237.453125 97.230469 187.613281 97.230469 Z M 240.207031 235.359375 C 240.207031 247.085938 230.664062 256.628906 218.9375 256.628906 L 156.289062 256.628906 C 144.5625 256.628906 135.019531 247.085938 135.019531 235.359375 L 135.019531 177.871094 C 135.019531 166.144531 144.5625 156.605469 156.289062 156.605469 L 200.917969 156.605469 L 200.917969 137.382812 C 200.917969 130.046875 194.949219 124.082031 187.613281 124.082031 C 180.277344 124.082031 174.308594 130.046875 174.308594 137.382812 L 174.3125 144.023438 C 174.3125 144.726562 174.03125 145.40625 173.535156 145.902344 C 173.035156 146.402344 172.359375 146.683594 171.652344 146.683594 L 158.867188 146.683594 C 157.398438 146.683594 156.207031 145.492188 156.207031 144.023438 L 156.207031 136.6875 C 156.207031 119.371094 170.296875 105.28125 187.613281 105.28125 C 204.929688 105.28125 219.019531 119.371094 219.019531 136.6875 L 219.019531 156.605469 C 230.710938 156.652344 240.207031 166.171875 240.207031 177.871094 Z M 240.207031 235.359375 " fill-opacity="1" fill-rule="nonzero"/><path fill="#f4f6fc" d="M 218.9375 161.925781 L 156.289062 161.925781 C 147.496094 161.925781 140.34375 169.082031 140.34375 177.875 L 140.34375 235.359375 C 140.34375 244.152344 147.496094 251.308594 156.289062 251.308594 L 218.9375 251.308594 C 227.730469 251.308594 234.886719 244.152344 234.886719 235.359375 L 234.886719 177.875 C 234.882812 169.082031 227.730469 161.925781 218.9375 161.925781 Z M 193.980469 201.195312 L 193.980469 217.789062 C 193.980469 221.304688 191.128906 224.15625 187.613281 224.15625 C 184.097656 224.15625 181.246094 221.304688 181.246094 217.789062 L 181.246094 201.195312 C 177.757812 199.050781 175.421875 195.210938 175.421875 190.8125 C 175.421875 184.078125 180.878906 178.617188 187.613281 178.617188 C 194.347656 178.617188 199.804688 184.078125 199.804688 190.8125 C 199.804688 195.210938 197.46875 199.050781 193.980469 201.195312 Z M 193.980469 201.195312 " fill-opacity="1" fill-rule="nonzero"/><g clip-path="url(#f95a828872)"><path fill="#f4f6fc" d="M 352.578125 218.882812 L 291.472656 218.882812 C 294.214844 209.785156 295.800781 200.195312 296.039062 190.273438 L 329.261719 190.273438 C 330.445312 194.78125 334.542969 198.117188 339.414062 198.117188 C 345.203125 198.117188 349.917969 193.40625 349.917969 187.613281 C 349.917969 181.820312 345.203125 177.109375 339.414062 177.109375 C 334.542969 177.109375 330.445312 180.449219 329.261719 184.953125 L 296.039062 184.953125 C 295.800781 175.03125 294.214844 165.441406 291.472656 156.347656 L 352.578125 156.347656 C 354.046875 156.347656 355.238281 155.15625 355.238281 153.683594 C 355.238281 152.214844 354.046875 151.023438 352.578125 151.023438 L 289.714844 151.023438 C 288.324219 147.148438 286.714844 143.378906 284.90625 139.722656 L 323.015625 139.722656 C 324.488281 139.722656 325.679688 138.53125 325.679688 137.058594 L 325.679688 109.324219 C 330.183594 108.140625 333.519531 104.046875 333.519531 99.175781 C 333.519531 93.382812 328.808594 88.671875 323.015625 88.671875 C 317.226562 88.671875 312.511719 93.382812 312.511719 99.175781 C 312.511719 104.046875 315.851562 108.140625 320.355469 109.324219 L 320.355469 134.398438 L 282.089844 134.398438 C 263.867188 102.171875 229.640625 80.140625 190.273438 79.1875 L 190.273438 45.40625 L 206.394531 37.558594 C 207.226562 42.519531 211.542969 46.316406 216.738281 46.316406 C 222.53125 46.316406 227.242188 41.605469 227.242188 35.8125 C 227.242188 30.023438 222.53125 25.308594 216.738281 25.308594 C 212.609375 25.308594 209.039062 27.710938 207.324219 31.183594 L 186.449219 41.347656 C 185.535156 41.792969 184.953125 42.722656 184.953125 43.742188 L 184.953125 79.1875 C 182.21875 79.253906 179.511719 79.421875 176.832031 79.6875 L 176.832031 22.648438 C 176.832031 21.179688 175.640625 19.988281 174.171875 19.988281 C 172.703125 19.988281 171.511719 21.179688 171.511719 22.648438 L 171.511719 80.347656 C 137.878906 85.378906 109.25 105.902344 93.136719 134.398438 L 54.871094 134.398438 L 54.871094 109.324219 C 59.375 108.140625 62.714844 104.046875 62.714844 99.175781 C 62.714844 93.382812 58 88.671875 52.210938 88.671875 C 46.417969 88.671875 41.707031 93.382812 41.707031 99.175781 C 41.707031 104.046875 45.042969 108.140625 49.546875 109.324219 L 49.546875 137.058594 C 49.546875 138.53125 50.738281 139.722656 52.210938 139.722656 L 90.320312 139.722656 C 83.546875 153.425781 79.578125 168.753906 79.1875 184.953125 L 45.964844 184.953125 C 44.78125 180.449219 40.683594 177.109375 35.8125 177.109375 C 30.023438 177.109375 25.308594 181.820312 25.308594 187.613281 C 25.308594 193.40625 30.023438 198.117188 35.8125 198.117188 C 40.683594 198.117188 44.78125 194.78125 45.964844 190.273438 L 79.1875 190.273438 C 79.425781 200.195312 81.011719 209.785156 83.753906 218.882812 L 22.648438 218.882812 C 21.179688 218.882812 19.988281 220.074219 19.988281 221.542969 C 19.988281 223.011719 21.179688 224.203125 22.648438 224.203125 L 85.511719 224.203125 C 86.902344 228.078125 88.511719 231.847656 90.320312 235.507812 L 52.210938 235.507812 C 50.738281 235.507812 49.546875 236.699219 49.546875 238.167969 L 49.546875 265.902344 C 45.042969 267.085938 41.707031 271.183594 41.707031 276.054688 C 41.707031 281.84375 46.417969 286.558594 52.210938 286.558594 C 58 286.558594 62.714844 281.84375 62.714844 276.054688 C 62.714844 271.183594 59.375 267.085938 54.871094 265.902344 L 54.871094 240.828125 L 93.136719 240.828125 C 111.359375 273.054688 145.585938 295.085938 184.953125 296.039062 L 184.953125 329.824219 L 168.835938 337.667969 C 168 332.707031 163.683594 328.910156 158.488281 328.910156 C 152.695312 328.910156 147.984375 333.621094 147.984375 339.414062 C 147.984375 345.203125 152.695312 349.917969 158.488281 349.917969 C 162.617188 349.917969 166.1875 347.515625 167.902344 344.042969 L 188.777344 333.878906 C 189.695312 333.433594 190.273438 332.503906 190.273438 331.488281 L 190.273438 296.039062 C 193.007812 295.972656 195.714844 295.804688 198.394531 295.539062 L 198.394531 352.578125 C 198.394531 354.046875 199.585938 355.238281 201.054688 355.238281 C 202.527344 355.238281 203.71875 354.046875 203.71875 352.578125 L 203.71875 294.878906 C 237.347656 289.851562 265.976562 269.324219 282.09375 240.828125 L 320.355469 240.828125 L 320.355469 265.902344 C 315.851562 267.085938 312.515625 271.183594 312.515625 276.054688 C 312.515625 281.84375 317.226562 286.558594 323.019531 286.558594 C 328.808594 286.558594 333.523438 281.84375 333.523438 276.054688 C 333.523438 271.183594 330.183594 267.085938 325.679688 265.902344 L 325.679688 238.167969 C 325.679688 236.699219 324.488281 235.507812 323.019531 235.507812 L 284.910156 235.507812 C 286.714844 231.847656 288.324219 228.078125 289.71875 224.203125 L 352.578125 224.203125 C 354.046875 224.203125 355.238281 223.011719 355.238281 221.542969 C 355.238281 220.074219 354.046875 218.882812 352.578125 218.882812 Z M 187.613281 283.320312 C 134.839844 283.320312 91.910156 240.386719 91.910156 187.613281 C 91.910156 134.839844 134.839844 91.910156 187.613281 91.910156 C 240.386719 91.910156 283.320312 134.839844 283.320312 187.613281 C 283.320312 240.386719 240.386719 283.320312 187.613281 283.320312 Z M 187.613281 283.320312 " fill-opacity="1" fill-rule="nonzero"/></g></svg>